<svg xmlns="http://www.w3.org/2000/svg" viewBox="0 0 1200 630" width="1200" height="630">
  <rect width="1200" height="630" fill="#1A1916"/>
  <rect x="0" y="0" width="420" height="630" fill="#1F1D1A"/>
  <rect x="420" y="0" width="2" height="630" fill="#8B7355" opacity="0.25"/>
  <rect x="48" y="48" width="80" height="1.5" fill="#8B7355" opacity="0.7"/>
  <rect x="48" y="48" width="1.5" height="80" fill="#8B7355" opacity="0.7"/>
  <rect x="1152" y="48" width="-80" height="1.5" fill="#8B7355" opacity="0.3"/>
  <rect x="1150.5" y="48" width="1.5" height="80" fill="#8B7355" opacity="0.3"/>
  <rect x="48" y="582" width="80" height="1.5" fill="#8B7355" opacity="0.3"/>
  <rect x="1072" y="582" width="80" height="1.5" fill="#8B7355" opacity="0.3"/>
  <text x="30" y="460" font-family="Georgia, 'Times New Roman', serif" font-size="420" font-style="italic" font-weight="400" fill="#F5F2EE" opacity="0.95">C</text>
  <text x="218" y="460" font-family="Georgia, 'Times New Roman', serif" font-size="420" font-style="normal" font-weight="400" fill="#8B7355" opacity="0.9">V</text>
  <rect x="48" y="500" width="160" height="2" fill="#8B7355" opacity="0.6"/>
  <text x="480" y="96" font-family="Arial, sans-serif" font-size="22" font-weight="400" fill="#8B7355" letter-spacing="8">AI BRAND CAMPAIGNS</text>
  <text x="474" y="260" font-family="Georgia, 'Times New Roman', serif" font-size="116" font-weight="300" fill="#F5F2EE" letter-spacing="2">Cre8</text>
  <text x="474" y="378" font-family="Georgia, 'Times New Roman', serif" font-size="116" font-style="italic" font-weight="300" fill="#C8C0B4" letter-spacing="2">Visions</text>
  <rect x="478" y="408" width="360" height="1.5" fill="#8B7355" opacity="0.4"/>
  <text x="480" y="448" font-family="Arial, sans-serif" font-size="20" font-weight="300" fill="#A89F94" letter-spacing="4">REAL SKIN · REAL LIGHT · AI MADE</text>
  <text x="480" y="510" font-family="Arial, sans-serif" font-size="20" font-weight="300" fill="#8B7355" letter-spacing="3">cre8visions.com</text>
  <text font-family="Arial, sans-serif" font-size="16" fill="#A89F94" letter-spacing="5" transform="translate(1130, 580) rotate(-90)">CAMPAIGN · LIFESTYLE · VIDEO · VISUALIZATION</text>
</svg>